<mxfile host="Electron" agent="Mozilla/5.0 (Windows NT 10.0; Win64; x64) AppleWebKit/537.36 (KHTML, like Gecko) draw.io/26.1.1 Chrome/132.0.6834.210 Electron/34.3.3 Safari/537.36" version="26.1.1">
  <diagram id="C5RBs43oDa-KdzZeNtuy" name="Page-1">
    <mxGraphModel dx="1478" dy="766" grid="1" gridSize="10" guides="1" tooltips="1" connect="1" arrows="1" fold="1" page="1" pageScale="1" pageWidth="827" pageHeight="1169" math="0" shadow="0">
      <root>
        <mxCell id="WIyWlLk6GJQsqaUBKTNV-0" />
        <mxCell id="WIyWlLk6GJQsqaUBKTNV-1" parent="WIyWlLk6GJQsqaUBKTNV-0" />
        <mxCell id="eFYhFj7gyF90XmFE_qZa-4" value="Peaje" style="swimlane;fontStyle=1;align=center;verticalAlign=top;childLayout=stackLayout;horizontal=1;startSize=26;horizontalStack=0;resizeParent=1;resizeParentMax=0;resizeLast=0;collapsible=1;marginBottom=0;whiteSpace=wrap;html=1;" vertex="1" parent="WIyWlLk6GJQsqaUBKTNV-1">
          <mxGeometry x="360" y="10" width="200" height="290" as="geometry" />
        </mxCell>
        <mxCell id="eFYhFj7gyF90XmFE_qZa-5" value="- nombre: String&amp;nbsp;&lt;div&gt;- ubicación: String&lt;/div&gt;&lt;div&gt;- montoTotal&lt;/div&gt;&lt;div&gt;&lt;br&gt;&lt;/div&gt;" style="text;strokeColor=none;fillColor=none;align=left;verticalAlign=top;spacingLeft=4;spacingRight=4;overflow=hidden;rotatable=0;points=[[0,0.5],[1,0.5]];portConstraint=eastwest;whiteSpace=wrap;html=1;" vertex="1" parent="eFYhFj7gyF90XmFE_qZa-4">
          <mxGeometry y="26" width="200" height="54" as="geometry" />
        </mxCell>
        <mxCell id="eFYhFj7gyF90XmFE_qZa-6" value="" style="line;strokeWidth=1;fillColor=none;align=left;verticalAlign=middle;spacingTop=-1;spacingLeft=3;spacingRight=3;rotatable=0;labelPosition=right;points=[];portConstraint=eastwest;strokeColor=inherit;" vertex="1" parent="eFYhFj7gyF90XmFE_qZa-4">
          <mxGeometry y="80" width="200" height="8" as="geometry" />
        </mxCell>
        <mxCell id="eFYhFj7gyF90XmFE_qZa-7" value="+ peaje(String nombre, String unicación, double montoTotal&lt;span style=&quot;background-color: transparent; color: light-dark(rgb(0, 0, 0), rgb(255, 255, 255));&quot;&gt;);&lt;/span&gt;" style="text;strokeColor=none;fillColor=none;align=left;verticalAlign=top;spacingLeft=4;spacingRight=4;overflow=hidden;rotatable=0;points=[[0,0.5],[1,0.5]];portConstraint=eastwest;whiteSpace=wrap;html=1;" vertex="1" parent="eFYhFj7gyF90XmFE_qZa-4">
          <mxGeometry y="88" width="200" height="52" as="geometry" />
        </mxCell>
        <mxCell id="eFYhFj7gyF90XmFE_qZa-42" value="+ asignarVehiculo();" style="text;strokeColor=none;fillColor=none;align=left;verticalAlign=top;spacingLeft=4;spacingRight=4;overflow=hidden;rotatable=0;points=[[0,0.5],[1,0.5]];portConstraint=eastwest;whiteSpace=wrap;html=1;" vertex="1" parent="eFYhFj7gyF90XmFE_qZa-4">
          <mxGeometry y="140" width="200" height="30" as="geometry" />
        </mxCell>
        <mxCell id="eFYhFj7gyF90XmFE_qZa-43" value="+ registroVehiculos();" style="text;strokeColor=none;fillColor=none;align=left;verticalAlign=top;spacingLeft=4;spacingRight=4;overflow=hidden;rotatable=0;points=[[0,0.5],[1,0.5]];portConstraint=eastwest;whiteSpace=wrap;html=1;" vertex="1" parent="eFYhFj7gyF90XmFE_qZa-4">
          <mxGeometry y="170" width="200" height="30" as="geometry" />
        </mxCell>
        <mxCell id="eFYhFj7gyF90XmFE_qZa-45" value="+ vehiculosDeConductor();" style="text;strokeColor=none;fillColor=none;align=left;verticalAlign=top;spacingLeft=4;spacingRight=4;overflow=hidden;rotatable=0;points=[[0,0.5],[1,0.5]];portConstraint=eastwest;whiteSpace=wrap;html=1;" vertex="1" parent="eFYhFj7gyF90XmFE_qZa-4">
          <mxGeometry y="200" width="200" height="30" as="geometry" />
        </mxCell>
        <mxCell id="eFYhFj7gyF90XmFE_qZa-51" value="+ cobrarPeaje();" style="text;strokeColor=none;fillColor=none;align=left;verticalAlign=top;spacingLeft=4;spacingRight=4;overflow=hidden;rotatable=0;points=[[0,0.5],[1,0.5]];portConstraint=eastwest;whiteSpace=wrap;html=1;" vertex="1" parent="eFYhFj7gyF90XmFE_qZa-4">
          <mxGeometry y="230" width="200" height="30" as="geometry" />
        </mxCell>
        <mxCell id="eFYhFj7gyF90XmFE_qZa-52" value="+ buscarRecaudadorPorNombre();" style="text;strokeColor=none;fillColor=none;align=left;verticalAlign=top;spacingLeft=4;spacingRight=4;overflow=hidden;rotatable=0;points=[[0,0.5],[1,0.5]];portConstraint=eastwest;whiteSpace=wrap;html=1;" vertex="1" parent="eFYhFj7gyF90XmFE_qZa-4">
          <mxGeometry y="260" width="200" height="30" as="geometry" />
        </mxCell>
        <mxCell id="eFYhFj7gyF90XmFE_qZa-8" value="Vehiculo" style="swimlane;fontStyle=1;align=center;verticalAlign=top;childLayout=stackLayout;horizontal=1;startSize=26;horizontalStack=0;resizeParent=1;resizeParentMax=0;resizeLast=0;collapsible=1;marginBottom=0;whiteSpace=wrap;html=1;" vertex="1" parent="WIyWlLk6GJQsqaUBKTNV-1">
          <mxGeometry x="-90" y="370" width="160" height="140" as="geometry" />
        </mxCell>
        <mxCell id="eFYhFj7gyF90XmFE_qZa-9" value="- placa: String&lt;div&gt;- peajesPagados: int&lt;br&gt;&lt;/div&gt;" style="text;strokeColor=none;fillColor=none;align=left;verticalAlign=top;spacingLeft=4;spacingRight=4;overflow=hidden;rotatable=0;points=[[0,0.5],[1,0.5]];portConstraint=eastwest;whiteSpace=wrap;html=1;" vertex="1" parent="eFYhFj7gyF90XmFE_qZa-8">
          <mxGeometry y="26" width="160" height="34" as="geometry" />
        </mxCell>
        <mxCell id="eFYhFj7gyF90XmFE_qZa-10" value="" style="line;strokeWidth=1;fillColor=none;align=left;verticalAlign=middle;spacingTop=-1;spacingLeft=3;spacingRight=3;rotatable=0;labelPosition=right;points=[];portConstraint=eastwest;strokeColor=inherit;" vertex="1" parent="eFYhFj7gyF90XmFE_qZa-8">
          <mxGeometry y="60" width="160" height="8" as="geometry" />
        </mxCell>
        <mxCell id="eFYhFj7gyF90XmFE_qZa-11" value="+ vehiculo(String placa, int peajesPagaados);" style="text;strokeColor=none;fillColor=none;align=left;verticalAlign=top;spacingLeft=4;spacingRight=4;overflow=hidden;rotatable=0;points=[[0,0.5],[1,0.5]];portConstraint=eastwest;whiteSpace=wrap;html=1;" vertex="1" parent="eFYhFj7gyF90XmFE_qZa-8">
          <mxGeometry y="68" width="160" height="42" as="geometry" />
        </mxCell>
        <mxCell id="eFYhFj7gyF90XmFE_qZa-46" value="+ atributosToString();" style="text;strokeColor=none;fillColor=none;align=left;verticalAlign=top;spacingLeft=4;spacingRight=4;overflow=hidden;rotatable=0;points=[[0,0.5],[1,0.5]];portConstraint=eastwest;whiteSpace=wrap;html=1;" vertex="1" parent="eFYhFj7gyF90XmFE_qZa-8">
          <mxGeometry y="110" width="160" height="30" as="geometry" />
        </mxCell>
        <mxCell id="eFYhFj7gyF90XmFE_qZa-12" value="Recaudador" style="swimlane;fontStyle=1;align=center;verticalAlign=top;childLayout=stackLayout;horizontal=1;startSize=26;horizontalStack=0;resizeParent=1;resizeParentMax=0;resizeLast=0;collapsible=1;marginBottom=0;whiteSpace=wrap;html=1;" vertex="1" parent="WIyWlLk6GJQsqaUBKTNV-1">
          <mxGeometry x="480" y="345" width="160" height="210" as="geometry" />
        </mxCell>
        <mxCell id="eFYhFj7gyF90XmFE_qZa-13" value="- nombre: String&lt;div&gt;- apellido:&amp;nbsp;&lt;span style=&quot;background-color: transparent; color: light-dark(rgb(0, 0, 0), rgb(255, 255, 255));&quot;&gt;String&lt;/span&gt;&lt;/div&gt;&lt;div&gt;&lt;span style=&quot;background-color: transparent; color: light-dark(rgb(0, 0, 0), rgb(255, 255, 255));&quot;&gt;- id:&amp;nbsp;&lt;/span&gt;&lt;span style=&quot;background-color: transparent; color: light-dark(rgb(0, 0, 0), rgb(255, 255, 255));&quot;&gt;String&lt;/span&gt;&lt;/div&gt;&lt;div&gt;&lt;span style=&quot;background-color: transparent; color: light-dark(rgb(0, 0, 0), rgb(255, 255, 255));&quot;&gt;- fechaNacimiento:&amp;nbsp;&lt;/span&gt;&lt;span style=&quot;background-color: transparent; color: light-dark(rgb(0, 0, 0), rgb(255, 255, 255));&quot;&gt;String&lt;/span&gt;&lt;/div&gt;&lt;div&gt;&lt;span style=&quot;background-color: transparent; color: light-dark(rgb(0, 0, 0), rgb(255, 255, 255));&quot;&gt;- sueldo: double&lt;/span&gt;&lt;/div&gt;" style="text;strokeColor=none;fillColor=none;align=left;verticalAlign=top;spacingLeft=4;spacingRight=4;overflow=hidden;rotatable=0;points=[[0,0.5],[1,0.5]];portConstraint=eastwest;whiteSpace=wrap;html=1;" vertex="1" parent="eFYhFj7gyF90XmFE_qZa-12">
          <mxGeometry y="26" width="160" height="94" as="geometry" />
        </mxCell>
        <mxCell id="eFYhFj7gyF90XmFE_qZa-14" value="" style="line;strokeWidth=1;fillColor=none;align=left;verticalAlign=middle;spacingTop=-1;spacingLeft=3;spacingRight=3;rotatable=0;labelPosition=right;points=[];portConstraint=eastwest;strokeColor=inherit;" vertex="1" parent="eFYhFj7gyF90XmFE_qZa-12">
          <mxGeometry y="120" width="160" height="8" as="geometry" />
        </mxCell>
        <mxCell id="eFYhFj7gyF90XmFE_qZa-15" value="+ recaudador(String nombre, String apellido, String id, String fechaNacimiento, double dueldo);" style="text;strokeColor=none;fillColor=none;align=left;verticalAlign=top;spacingLeft=4;spacingRight=4;overflow=hidden;rotatable=0;points=[[0,0.5],[1,0.5]];portConstraint=eastwest;whiteSpace=wrap;html=1;" vertex="1" parent="eFYhFj7gyF90XmFE_qZa-12">
          <mxGeometry y="128" width="160" height="82" as="geometry" />
        </mxCell>
        <mxCell id="eFYhFj7gyF90XmFE_qZa-16" value="Moto" style="swimlane;fontStyle=1;align=center;verticalAlign=top;childLayout=stackLayout;horizontal=1;startSize=26;horizontalStack=0;resizeParent=1;resizeParentMax=0;resizeLast=0;collapsible=1;marginBottom=0;whiteSpace=wrap;html=1;" vertex="1" parent="WIyWlLk6GJQsqaUBKTNV-1">
          <mxGeometry x="-90" y="585" width="160" height="180" as="geometry" />
        </mxCell>
        <mxCell id="eFYhFj7gyF90XmFE_qZa-17" value="- placa: String&lt;div&gt;- peajesPagados: int&lt;br&gt;- cilindraje: double&lt;/div&gt;" style="text;strokeColor=none;fillColor=none;align=left;verticalAlign=top;spacingLeft=4;spacingRight=4;overflow=hidden;rotatable=0;points=[[0,0.5],[1,0.5]];portConstraint=eastwest;whiteSpace=wrap;html=1;" vertex="1" parent="eFYhFj7gyF90XmFE_qZa-16">
          <mxGeometry y="26" width="160" height="54" as="geometry" />
        </mxCell>
        <mxCell id="eFYhFj7gyF90XmFE_qZa-18" value="" style="line;strokeWidth=1;fillColor=none;align=left;verticalAlign=middle;spacingTop=-1;spacingLeft=3;spacingRight=3;rotatable=0;labelPosition=right;points=[];portConstraint=eastwest;strokeColor=inherit;" vertex="1" parent="eFYhFj7gyF90XmFE_qZa-16">
          <mxGeometry y="80" width="160" height="8" as="geometry" />
        </mxCell>
        <mxCell id="eFYhFj7gyF90XmFE_qZa-19" value="+ Moto(String placa, int peajesPagaados, double cilindraje);" style="text;strokeColor=none;fillColor=none;align=left;verticalAlign=top;spacingLeft=4;spacingRight=4;overflow=hidden;rotatable=0;points=[[0,0.5],[1,0.5]];portConstraint=eastwest;whiteSpace=wrap;html=1;" vertex="1" parent="eFYhFj7gyF90XmFE_qZa-16">
          <mxGeometry y="88" width="160" height="62" as="geometry" />
        </mxCell>
        <mxCell id="eFYhFj7gyF90XmFE_qZa-48" value="+ atributosToString();" style="text;strokeColor=none;fillColor=none;align=left;verticalAlign=top;spacingLeft=4;spacingRight=4;overflow=hidden;rotatable=0;points=[[0,0.5],[1,0.5]];portConstraint=eastwest;whiteSpace=wrap;html=1;" vertex="1" parent="eFYhFj7gyF90XmFE_qZa-16">
          <mxGeometry y="150" width="160" height="30" as="geometry" />
        </mxCell>
        <mxCell id="eFYhFj7gyF90XmFE_qZa-20" value="Carro" style="swimlane;fontStyle=1;align=center;verticalAlign=top;childLayout=stackLayout;horizontal=1;startSize=30;horizontalStack=0;resizeParent=1;resizeParentMax=0;resizeLast=0;collapsible=1;marginBottom=0;whiteSpace=wrap;html=1;" vertex="1" parent="WIyWlLk6GJQsqaUBKTNV-1">
          <mxGeometry x="-280" y="585" width="160" height="210" as="geometry" />
        </mxCell>
        <mxCell id="eFYhFj7gyF90XmFE_qZa-21" value="- placa: String&lt;div&gt;- peajesPagados: int&lt;br&gt;&lt;/div&gt;&lt;div&gt;- electrico: boolean&lt;/div&gt;&lt;div&gt;- servicio: boolean&lt;/div&gt;" style="text;strokeColor=none;fillColor=none;align=left;verticalAlign=top;spacingLeft=4;spacingRight=4;overflow=hidden;rotatable=0;points=[[0,0.5],[1,0.5]];portConstraint=eastwest;whiteSpace=wrap;html=1;" vertex="1" parent="eFYhFj7gyF90XmFE_qZa-20">
          <mxGeometry y="30" width="160" height="80" as="geometry" />
        </mxCell>
        <mxCell id="eFYhFj7gyF90XmFE_qZa-22" value="" style="line;strokeWidth=1;fillColor=none;align=left;verticalAlign=middle;spacingTop=-1;spacingLeft=3;spacingRight=3;rotatable=0;labelPosition=right;points=[];portConstraint=eastwest;strokeColor=inherit;" vertex="1" parent="eFYhFj7gyF90XmFE_qZa-20">
          <mxGeometry y="110" width="160" height="8" as="geometry" />
        </mxCell>
        <mxCell id="eFYhFj7gyF90XmFE_qZa-23" value="+ carro(String placa, int peajesPagaados, boolean electrico, boolean servicio);" style="text;strokeColor=none;fillColor=none;align=left;verticalAlign=top;spacingLeft=4;spacingRight=4;overflow=hidden;rotatable=0;points=[[0,0.5],[1,0.5]];portConstraint=eastwest;whiteSpace=wrap;html=1;" vertex="1" parent="eFYhFj7gyF90XmFE_qZa-20">
          <mxGeometry y="118" width="160" height="62" as="geometry" />
        </mxCell>
        <mxCell id="eFYhFj7gyF90XmFE_qZa-47" value="+ atributosToString();" style="text;strokeColor=none;fillColor=none;align=left;verticalAlign=top;spacingLeft=4;spacingRight=4;overflow=hidden;rotatable=0;points=[[0,0.5],[1,0.5]];portConstraint=eastwest;whiteSpace=wrap;html=1;" vertex="1" parent="eFYhFj7gyF90XmFE_qZa-20">
          <mxGeometry y="180" width="160" height="30" as="geometry" />
        </mxCell>
        <mxCell id="eFYhFj7gyF90XmFE_qZa-24" value="Camion" style="swimlane;fontStyle=1;align=center;verticalAlign=top;childLayout=stackLayout;horizontal=1;startSize=26;horizontalStack=0;resizeParent=1;resizeParentMax=0;resizeLast=0;collapsible=1;marginBottom=0;whiteSpace=wrap;html=1;" vertex="1" parent="WIyWlLk6GJQsqaUBKTNV-1">
          <mxGeometry x="100" y="585" width="160" height="180" as="geometry" />
        </mxCell>
        <mxCell id="eFYhFj7gyF90XmFE_qZa-25" value="- placa: String&lt;div&gt;- peajesPagados: int&lt;br&gt;&lt;/div&gt;&lt;div&gt;- ejes: int&lt;/div&gt;&lt;div&gt;-carga: double&lt;/div&gt;&lt;div&gt;&lt;br&gt;&lt;/div&gt;" style="text;strokeColor=none;fillColor=none;align=left;verticalAlign=top;spacingLeft=4;spacingRight=4;overflow=hidden;rotatable=0;points=[[0,0.5],[1,0.5]];portConstraint=eastwest;whiteSpace=wrap;html=1;" vertex="1" parent="eFYhFj7gyF90XmFE_qZa-24">
          <mxGeometry y="26" width="160" height="64" as="geometry" />
        </mxCell>
        <mxCell id="eFYhFj7gyF90XmFE_qZa-26" value="" style="line;strokeWidth=1;fillColor=none;align=left;verticalAlign=middle;spacingTop=-1;spacingLeft=3;spacingRight=3;rotatable=0;labelPosition=right;points=[];portConstraint=eastwest;strokeColor=inherit;" vertex="1" parent="eFYhFj7gyF90XmFE_qZa-24">
          <mxGeometry y="90" width="160" height="8" as="geometry" />
        </mxCell>
        <mxCell id="eFYhFj7gyF90XmFE_qZa-27" value="+ camion(String placa, int peajesPagaados, int ejes, double carga);" style="text;strokeColor=none;fillColor=none;align=left;verticalAlign=top;spacingLeft=4;spacingRight=4;overflow=hidden;rotatable=0;points=[[0,0.5],[1,0.5]];portConstraint=eastwest;whiteSpace=wrap;html=1;" vertex="1" parent="eFYhFj7gyF90XmFE_qZa-24">
          <mxGeometry y="98" width="160" height="52" as="geometry" />
        </mxCell>
        <mxCell id="eFYhFj7gyF90XmFE_qZa-49" value="+ atributosToString();" style="text;strokeColor=none;fillColor=none;align=left;verticalAlign=top;spacingLeft=4;spacingRight=4;overflow=hidden;rotatable=0;points=[[0,0.5],[1,0.5]];portConstraint=eastwest;whiteSpace=wrap;html=1;" vertex="1" parent="eFYhFj7gyF90XmFE_qZa-24">
          <mxGeometry y="150" width="160" height="30" as="geometry" />
        </mxCell>
        <mxCell id="eFYhFj7gyF90XmFE_qZa-28" value="Conductor" style="swimlane;fontStyle=1;align=center;verticalAlign=top;childLayout=stackLayout;horizontal=1;startSize=26;horizontalStack=0;resizeParent=1;resizeParentMax=0;resizeLast=0;collapsible=1;marginBottom=0;whiteSpace=wrap;html=1;" vertex="1" parent="WIyWlLk6GJQsqaUBKTNV-1">
          <mxGeometry x="280" y="345" width="160" height="190" as="geometry" />
        </mxCell>
        <mxCell id="eFYhFj7gyF90XmFE_qZa-29" value="- nombre: String&lt;div&gt;- apellido:&amp;nbsp;&lt;span style=&quot;background-color: transparent; color: light-dark(rgb(0, 0, 0), rgb(255, 255, 255));&quot;&gt;String&lt;/span&gt;&lt;/div&gt;&lt;div&gt;&lt;span style=&quot;background-color: transparent; color: light-dark(rgb(0, 0, 0), rgb(255, 255, 255));&quot;&gt;- id:&amp;nbsp;&lt;/span&gt;&lt;span style=&quot;background-color: transparent; color: light-dark(rgb(0, 0, 0), rgb(255, 255, 255));&quot;&gt;String&lt;/span&gt;&lt;/div&gt;&lt;div&gt;&lt;span style=&quot;background-color: transparent; color: light-dark(rgb(0, 0, 0), rgb(255, 255, 255));&quot;&gt;- fechaNacimiento:&amp;nbsp;&lt;/span&gt;&lt;span style=&quot;background-color: transparent; color: light-dark(rgb(0, 0, 0), rgb(255, 255, 255));&quot;&gt;String&lt;/span&gt;&lt;/div&gt;" style="text;strokeColor=none;fillColor=none;align=left;verticalAlign=top;spacingLeft=4;spacingRight=4;overflow=hidden;rotatable=0;points=[[0,0.5],[1,0.5]];portConstraint=eastwest;whiteSpace=wrap;html=1;" vertex="1" parent="eFYhFj7gyF90XmFE_qZa-28">
          <mxGeometry y="26" width="160" height="74" as="geometry" />
        </mxCell>
        <mxCell id="eFYhFj7gyF90XmFE_qZa-30" value="" style="line;strokeWidth=1;fillColor=none;align=left;verticalAlign=middle;spacingTop=-1;spacingLeft=3;spacingRight=3;rotatable=0;labelPosition=right;points=[];portConstraint=eastwest;strokeColor=inherit;" vertex="1" parent="eFYhFj7gyF90XmFE_qZa-28">
          <mxGeometry y="100" width="160" height="8" as="geometry" />
        </mxCell>
        <mxCell id="eFYhFj7gyF90XmFE_qZa-31" value="+ conductor(String nombre, String apellido, String id, String fechaNacimiento);" style="text;strokeColor=none;fillColor=none;align=left;verticalAlign=top;spacingLeft=4;spacingRight=4;overflow=hidden;rotatable=0;points=[[0,0.5],[1,0.5]];portConstraint=eastwest;whiteSpace=wrap;html=1;" vertex="1" parent="eFYhFj7gyF90XmFE_qZa-28">
          <mxGeometry y="108" width="160" height="52" as="geometry" />
        </mxCell>
        <mxCell id="eFYhFj7gyF90XmFE_qZa-44" value="+ pagadoPorVehiculo();" style="text;strokeColor=none;fillColor=none;align=left;verticalAlign=top;spacingLeft=4;spacingRight=4;overflow=hidden;rotatable=0;points=[[0,0.5],[1,0.5]];portConstraint=eastwest;whiteSpace=wrap;html=1;" vertex="1" parent="eFYhFj7gyF90XmFE_qZa-28">
          <mxGeometry y="160" width="160" height="30" as="geometry" />
        </mxCell>
        <mxCell id="eFYhFj7gyF90XmFE_qZa-34" value="" style="endArrow=diamondThin;endFill=1;endSize=24;html=1;rounded=0;" edge="1" parent="WIyWlLk6GJQsqaUBKTNV-1" source="eFYhFj7gyF90XmFE_qZa-8" target="eFYhFj7gyF90XmFE_qZa-28">
          <mxGeometry width="160" relative="1" as="geometry">
            <mxPoint x="80" y="462" as="sourcePoint" />
            <mxPoint x="240" y="462" as="targetPoint" />
          </mxGeometry>
        </mxCell>
        <mxCell id="eFYhFj7gyF90XmFE_qZa-35" value="1" style="text;html=1;align=center;verticalAlign=middle;resizable=0;points=[];autosize=1;strokeColor=none;fillColor=none;" vertex="1" parent="WIyWlLk6GJQsqaUBKTNV-1">
          <mxGeometry x="240" y="442" width="30" height="30" as="geometry" />
        </mxCell>
        <mxCell id="eFYhFj7gyF90XmFE_qZa-36" value="*" style="text;html=1;align=center;verticalAlign=middle;resizable=0;points=[];autosize=1;strokeColor=none;fillColor=none;" vertex="1" parent="WIyWlLk6GJQsqaUBKTNV-1">
          <mxGeometry x="60" y="412" width="30" height="30" as="geometry" />
        </mxCell>
        <mxCell id="eFYhFj7gyF90XmFE_qZa-37" value="ListaVehiculos" style="text;html=1;align=center;verticalAlign=middle;resizable=0;points=[];autosize=1;strokeColor=none;fillColor=none;" vertex="1" parent="WIyWlLk6GJQsqaUBKTNV-1">
          <mxGeometry x="60" y="442" width="100" height="30" as="geometry" />
        </mxCell>
        <mxCell id="eFYhFj7gyF90XmFE_qZa-56" value="" style="endArrow=diamondThin;endFill=1;endSize=24;html=1;rounded=0;" edge="1" parent="WIyWlLk6GJQsqaUBKTNV-1" source="eFYhFj7gyF90XmFE_qZa-12" target="eFYhFj7gyF90XmFE_qZa-4">
          <mxGeometry width="160" relative="1" as="geometry">
            <mxPoint x="280" y="330" as="sourcePoint" />
            <mxPoint x="490" y="330" as="targetPoint" />
            <Array as="points" />
          </mxGeometry>
        </mxCell>
        <mxCell id="eFYhFj7gyF90XmFE_qZa-57" value="" style="endArrow=block;endSize=16;endFill=0;html=1;rounded=0;" edge="1" parent="WIyWlLk6GJQsqaUBKTNV-1" source="eFYhFj7gyF90XmFE_qZa-20" target="eFYhFj7gyF90XmFE_qZa-8">
          <mxGeometry width="160" relative="1" as="geometry">
            <mxPoint x="-100" y="590" as="sourcePoint" />
            <mxPoint x="60" y="590" as="targetPoint" />
            <Array as="points">
              <mxPoint x="-200" y="560" />
              <mxPoint x="-10" y="560" />
            </Array>
          </mxGeometry>
        </mxCell>
        <mxCell id="eFYhFj7gyF90XmFE_qZa-58" value="" style="endArrow=block;endSize=16;endFill=0;html=1;rounded=0;" edge="1" parent="WIyWlLk6GJQsqaUBKTNV-1" source="eFYhFj7gyF90XmFE_qZa-16" target="eFYhFj7gyF90XmFE_qZa-8">
          <mxGeometry width="160" relative="1" as="geometry">
            <mxPoint x="-107" y="595" as="sourcePoint" />
            <mxPoint x="-52" y="520" as="targetPoint" />
          </mxGeometry>
        </mxCell>
        <mxCell id="eFYhFj7gyF90XmFE_qZa-59" value="" style="endArrow=block;endSize=16;endFill=0;html=1;rounded=0;" edge="1" parent="WIyWlLk6GJQsqaUBKTNV-1" source="eFYhFj7gyF90XmFE_qZa-24" target="eFYhFj7gyF90XmFE_qZa-8">
          <mxGeometry width="160" relative="1" as="geometry">
            <mxPoint x="-97" y="605" as="sourcePoint" />
            <mxPoint x="-42" y="530" as="targetPoint" />
            <Array as="points">
              <mxPoint x="180" y="560" />
              <mxPoint x="-10" y="560" />
            </Array>
          </mxGeometry>
        </mxCell>
        <mxCell id="eFYhFj7gyF90XmFE_qZa-61" value="" style="endArrow=diamondThin;endFill=0;endSize=24;html=1;rounded=0;" edge="1" parent="WIyWlLk6GJQsqaUBKTNV-1" source="eFYhFj7gyF90XmFE_qZa-28" target="eFYhFj7gyF90XmFE_qZa-4">
          <mxGeometry width="160" relative="1" as="geometry">
            <mxPoint x="350" y="310" as="sourcePoint" />
            <mxPoint x="470" y="310" as="targetPoint" />
          </mxGeometry>
        </mxCell>
      </root>
    </mxGraphModel>
  </diagram>
</mxfile>
